PathFileType  4	(X/Y/Z) C:\Users\antoi\Documents\MyRepositories\mobilecap\ResultsAnalysis
DataRate	CameraRate	NumFrames	NumMarkers	Units	OrigDataRate	OrigDataStartFrame	OrigNumFrames
100.0	100.0	7	51	mm	100.0	78	154
Frame#	Time	r_knee			r_shank_antsup			r_ankle			r_calc			r_5meta			r_toe			L_knee			L_shank_antsup			L_ankle			L_calc			L_5meta			L_toe			r_sh2			r_sh3			r_sh4			L_sh2			L_sh3			r_thigh1			r_thigh2			r_thigh3			r_thigh4			r_thigh5			L_thigh1			L_thigh2			L_thigh3			L_thigh4			r.ASIS			r.PSIS			L.ASIS			L.PSIS			C7			R_Shoulder			L_Shoulder			R_Sternum			L_Sternum			R_humerus			R_elbow_med			R_elbow_lat			R_forearm			R_wrist_radius			R_wrist_ulna			L_humerus			L_elbow_med			L_elbow_lat			L_forearm			L_wrist_radius			L_wrist_ulna			R_HJC			L_HJC			R_HJC_reg			L_HJC_reg			
		X1	Y1	Z1	X2	Y2	Z2	X3	Y3	Z3	X4	Y4	Z4	X5	Y5	Z5	X6	Y6	Z6	X7	Y7	Z7	X8	Y8	Z8	X9	Y9	Z9	X10	Y10	Z10	X11	Y11	Z11	X12	Y12	Z12	X13	Y13	Z13	X14	Y14	Z14	X15	Y15	Z15	X16	Y16	Z16	X17	Y17	Z17	X18	Y18	Z18	X19	Y19	Z19	X20	Y20	Z20	X21	Y21	Z21	X22	Y22	Z22	X23	Y23	Z23	X24	Y24	Z24	X25	Y25	Z25	X26	Y26	Z26	X27	Y27	Z27	X28	Y28	Z28	X29	Y29	Z29	X30	Y30	Z30	X31	Y31	Z31	X32	Y32	Z32	X33	Y33	Z33	X34	Y34	Z34	X35	Y35	Z35	X36	Y36	Z36	X37	Y37	Z37	X38	Y38	Z38	X39	Y39	Z39	X40	Y40	Z40	X41	Y41	Z41	X42	Y42	Z42	X43	Y43	Z43	X44	Y44	Z44	X45	Y45	Z45	X46	Y46	Z46	X47	Y47	Z47	X48	Y48	Z48	X49	Y49	Z49	X50	Y50	Z50	X51	Y51	Z51	

78	0.77000000	543.76644	463.58257	-102.12553	537.39369	389.27733	-101.66006	266.01431	184.76577	-136.21026	217.55847	218.93098	-184.56690	283.98399	64.32183	-129.61506	337.73919	56.13497	-174.47376	795.19360	468.26255	-373.90126	841.20248	391.53586	-349.54092	805.59050	86.52059	-366.17604	742.07784	50.90993	-334.94987	914.12770	44.41647	-374.07853	952.30005	62.93474	-310.30297	447.84013	319.97255	-100.33927	492.29286	446.46310	-80.95693	393.97299	382.64226	-86.35021	773.20204	400.28643	-410.75584	779.73229	278.06651	-418.64143	632.63258	699.98239	-76.72571	618.54944	587.61191	-81.44780	549.79170	573.91631	-86.11353	520.84824	712.41276	-95.15610	510.52051	598.92229	-120.04965	758.90027	740.66986	-433.84700	799.14997	611.12082	-401.31636	655.61477	702.02984	-455.22486	690.14386	576.62217	-406.44510	711.72811	904.80022	-143.25713	514.61702	947.71852	-243.09203	742.72210	910.56973	-362.02439	527.77724	944.25402	-324.01352	650.62787	1366.22245	-335.96050	711.26320	1372.79676	-183.05372	698.47513	1283.29162	-457.86042	770.65802	1298.74868	-292.42818	768.82024	1288.84651	-329.95097	715.98033	1271.48723	-98.66065	583.77445	1090.83806	-68.48913	628.83982	1097.45528	-17.63167	684.84651	1018.63565	-12.80890	711.42348	874.41367	-15.24993	688.12066	875.11329	16.75334	711.00269	1171.76998	-504.36607	677.71918	953.08093	-461.20028	703.56473	968.41052	-519.69426	772.12620	887.26329	-529.58165	820.50794	767.49452	-513.70269	789.92954	756.96765	-538.59116	627.51023	822.05830	-162.46655	656.46579	828.29292	-367.87749	639.18240	848.55788	-183.05802	662.57447	842.40195	-326.92373	
79	0.78000000	564.90232	462.28622	-98.40914	557.97847	388.11253	-98.49130	280.54505	192.77397	-133.74609	234.90969	230.49826	-182.44578	290.99726	70.80907	-128.76900	345.28328	59.99827	-172.39462	800.48035	468.09629	-373.70085	845.48887	390.74675	-349.81749	805.85192	86.54472	-365.84220	742.17656	50.97965	-334.84083	914.18970	44.28852	-373.94683	952.37706	62.22698	-310.08367	466.54384	321.36347	-97.58671	514.54327	446.43256	-77.40239	414.48690	385.40744	-82.90153	777.15186	400.29268	-410.47662	782.18322	278.03830	-418.40852	646.02471	701.05793	-76.08493	635.66750	588.13108	-79.13707	567.52416	572.19049	-84.00800	534.15169	709.88828	-95.19634	527.50398	595.57734	-118.24960	768.88333	741.06793	-433.45202	806.87529	610.72646	-401.06791	665.08950	703.63684	-455.97038	697.27378	578.05348	-406.48489	720.82074	906.53146	-143.87615	524.39683	949.44227	-244.35502	753.08295	911.67305	-362.19649	538.05543	945.80813	-325.22634	663.17876	1366.45425	-339.71068	724.84906	1375.09973	-187.62493	709.35463	1281.80128	-460.63545	782.80743	1298.94945	-296.13302	780.54153	1288.57371	-333.34489	729.49997	1274.72972	-102.24062	592.92997	1098.88786	-66.10799	640.02426	1103.81435	-17.50812	692.71800	1022.99892	-13.78590	713.00037	877.46227	-15.54980	691.10597	879.50246	17.49973	721.70900	1169.75287	-505.85546	690.49884	951.48999	-459.64517	716.21339	966.20536	-518.37281	785.68536	885.58246	-527.07467	835.16521	766.53620	-509.45577	804.75097	755.45691	-534.31010	636.73050	823.82764	-163.04488	666.64002	829.54622	-368.31378	648.48835	850.26182	-183.96612	672.72182	843.81376	-327.49371	
80	0.79000000	586.20577	461.53741	-94.84755	578.74940	387.45009	-95.38258	296.10494	200.80495	-131.55054	252.95276	241.27999	-180.58320	300.23207	77.86568	-127.70479	354.83366	64.64116	-170.27317	805.33394	467.88213	-373.42387	849.36640	389.83759	-349.71801	806.10124	86.51491	-365.53351	742.24605	51.04308	-334.75441	914.25867	44.15053	-373.83525	952.44456	61.52653	-309.92594	485.63697	323.13591	-94.99010	536.89052	446.84729	-74.19453	435.29154	388.43473	-79.86786	781.19143	400.22690	-410.21406	784.86822	277.96210	-418.22071	659.36242	702.30097	-75.25438	652.77093	588.97308	-76.72633	585.45583	570.75845	-81.99217	547.58896	707.53373	-95.10317	544.71363	592.56013	-116.52734	778.32867	741.34960	-432.86352	814.06947	610.29824	-400.56865	674.03124	705.25105	-456.29698	703.78160	579.48035	-406.06074	729.64234	908.05309	-143.95662	533.97879	950.98605	-246.07545	763.36276	912.25502	-361.83415	548.34729	947.30412	-326.85403	675.39606	1366.61871	-343.31341	737.67973	1377.01291	-191.85955	720.29027	1280.38050	-463.28353	794.66905	1299.00877	-299.43107	791.87375	1288.18132	-336.40257	742.43855	1277.38066	-105.66004	601.86278	1106.40778	-63.13246	651.11090	1109.61762	-17.07543	700.66630	1027.07679	-14.82134	715.19494	880.60906	-16.01483	694.95479	883.79339	18.14292	732.43117	1167.83233	-507.29560	702.87858	950.06947	-458.16710	728.50431	964.13609	-517.08993	798.99956	884.06816	-524.56408	849.77615	765.91429	-505.12443	819.53957	754.20730	-529.90858	645.35471	825.49078	-163.44237	676.85162	830.38831	-368.46856	657.45751	851.43648	-184.64758	682.91233	844.91077	-327.79395	
81	0.80000000	607.50140	461.45733	-91.51289	599.53331	387.42653	-92.31901	312.58326	208.67450	-129.65931	271.34677	251.02533	-178.97580	311.95883	85.21687	-126.38244	366.66797	69.98981	-168.15854	809.92447	467.66864	-373.10212	852.94652	388.84455	-349.22177	806.34788	86.45662	-365.25499	742.29921	51.11894	-334.69140	914.33705	44.01501	-373.75091	952.50811	60.86340	-309.82678	504.90927	325.36802	-92.56450	559.10446	447.83580	-71.37001	456.15388	391.80134	-77.35385	785.46560	400.12988	-409.98442	787.87649	277.86653	-418.07121	672.68622	703.77714	-74.26008	669.75800	590.22826	-74.24234	603.45240	569.77674	-80.09985	561.15032	705.52067	-94.88836	562.07206	590.04688	-114.93718	787.22588	741.61870	-432.15467	820.85330	609.98433	-399.89896	682.46893	706.91292	-456.32754	709.84026	580.93660	-405.39586	738.26000	909.39425	-143.51368	543.37872	952.33167	-248.09645	773.51667	912.47050	-360.98612	558.60178	948.79896	-328.73966	687.27600	1366.74091	-346.76783	749.78601	1378.60523	-195.71921	731.26375	1279.02365	-465.80885	806.22101	1298.98035	-302.36565	802.81884	1287.70502	-339.14724	754.69691	1279.52279	-108.82949	610.47712	1113.33240	-59.91768	661.85518	1114.86599	-16.46561	708.56156	1030.85901	-15.84881	717.96529	883.78225	-16.50725	699.53342	887.93022	18.69519	743.21962	1166.01606	-508.69324	714.88196	948.79282	-456.77710	740.47231	962.18095	-515.85457	812.05582	882.69813	-522.06542	864.27724	765.58644	-500.73073	834.23372	753.18398	-525.41019	653.49839	827.04353	-163.66218	687.06879	830.94649	-368.35831	666.19868	852.05682	-185.10495	693.14227	845.80001	-327.86091	
82	0.81000000	628.64052	462.08390	-88.44746	620.20563	388.11209	-89.31058	329.86307	216.20668	-128.09624	289.85793	259.58104	-177.64436	326.22629	92.57675	-124.79221	380.88548	75.87765	-166.06203	814.38072	467.48927	-372.77362	856.31817	387.82055	-348.40169	806.59611	86.39709	-365.00538	742.34793	51.22497	-334.64620	914.42189	43.89652	-373.69454	952.57798	60.28017	-309.77232	524.21608	328.07198	-90.32445	581.01505	449.44102	-68.92458	476.89304	395.51411	-75.40541	789.97522	400.04030	-409.78990	791.15666	277.78026	-417.94520	686.00581	705.53147	-73.13257	686.55795	591.93998	-71.73752	621.35870	569.35059	-78.34660	574.79495	703.95209	-94.58047	579.48297	588.13940	-113.51677	795.60201	741.93554	-431.40769	827.33087	609.85579	-399.16605	690.45425	708.61376	-456.20251	715.61662	582.41295	-404.71222	746.72628	910.61624	-142.62536	552.61965	953.49088	-250.21841	783.50335	912.48913	-359.75945	568.75301	950.34947	-330.69450	698.83696	1366.85183	-350.06785	761.26552	1379.95960	-199.20259	742.22875	1277.74418	-468.21159	817.47787	1298.92952	-304.98873	813.43513	1287.20180	-341.61310	766.21888	1281.29889	-111.67418	618.71977	1119.64128	-56.84039	672.06201	1119.61637	-15.82853	716.29621	1034.38400	-16.78050	721.25247	886.95048	-16.85646	704.63258	891.91569	19.20299	754.07177	1164.32369	-510.04915	726.55061	947.64429	-455.46954	752.15688	960.33557	-514.67217	824.84835	881.47490	-519.59392	878.62064	765.53401	-496.30945	848.77590	752.37312	-520.85302	661.30293	828.50672	-163.71225	697.22993	831.36233	-368.01549	674.82627	852.16244	-185.35717	703.37247	846.60095	-327.75132	
83	0.82000000	649.51505	463.37168	-85.66344	640.69195	389.49233	-86.38799	347.83483	223.24590	-126.87408	308.39479	266.88159	-176.64317	342.85141	99.68563	-122.95000	397.37928	82.05456	-163.95323	818.77292	467.36508	-372.47695	859.54524	386.83158	-347.41991	806.84123	86.36046	-364.78257	742.40042	51.37307	-334.61099	914.50453	43.80801	-373.66369	952.66254	59.81040	-309.74631	543.49926	331.18097	-88.27755	602.51853	451.61231	-66.81967	497.39756	399.49630	-74.00243	794.58082	399.99238	-409.62833	794.53094	277.73360	-417.83163	699.29083	707.58062	-71.90536	703.12972	594.09842	-69.28014	639.02187	569.51671	-76.73085	588.45727	702.84419	-94.21439	596.84355	586.85130	-112.27820	803.51983	742.32053	-430.69450	833.58147	609.91558	-398.47162	698.06464	710.31073	-456.04234	721.25937	583.87416	-404.18181	755.08674	911.79647	-141.41670	561.73048	954.50700	-252.22733	793.28965	912.46926	-358.30725	578.73348	952.00019	-332.52410	710.11398	1366.98248	-353.21004	772.25961	1381.15581	-202.34483	753.12896	1276.56654	-470.49006	828.47397	1298.91103	-307.34716	823.81353	1286.73342	-343.83746	776.99698	1282.88105	-114.15020	626.59006	1125.33975	-54.25291	681.60412	1123.96364	-15.31292	723.79352	1037.72941	-17.52833	725.00372	890.12682	-16.87756	710.01053	895.80154	19.76024	764.94271	1162.77822	-511.35872	737.93258	946.61861	-454.23125	763.58925	958.61295	-513.54848	837.37492	880.41706	-517.16402	892.77289	765.75415	-491.90369	863.11836	751.77615	-516.28200	668.92156	829.91957	-163.60248	707.25451	831.76888	-367.48525	683.44204	851.85814	-185.43169	713.53625	847.42157	-327.53241	
84	0.83000000	670.06181	465.21028	-83.15080	660.96563	391.46957	-83.59710	366.40157	229.66239	-125.99462	326.98942	272.91835	-176.04782	361.47727	106.33388	-120.88733	415.87171	88.22423	-161.77465	823.10908	467.30574	-372.24698	862.66689	385.94549	-346.49424	807.06927	86.36433	-364.58773	742.45987	51.56514	-334.57910	914.57286	43.75778	-373.65500	952.76315	59.46660	-309.73693	562.77895	334.55466	-86.42694	623.57188	454.21812	-64.99357	517.63067	403.59136	-73.06333	799.04358	400.01015	-409.50197	797.74366	277.75437	-417.73012	712.47519	709.90895	-70.61378	719.44912	596.64784	-66.93620	656.31936	570.24201	-75.23999	602.05831	702.13451	-93.82134	614.06099	586.11507	-111.20476	811.06573	742.76610	-430.06556	839.65599	610.11978	-397.89112	705.39347	711.95312	-455.92217	726.88224	585.28925	-403.89891	763.38871	913.00990	-140.04013	570.74308	955.44865	-253.92498	802.85210	912.53870	-356.80828	588.48893	953.76911	-334.05092	721.15154	1367.15578	-356.19849	782.91612	1382.25982	-205.20658	763.91434	1275.51543	-472.64297	839.24338	1298.95390	-309.47717	834.03912	1286.34779	-345.85518	787.07258	1284.43654	-116.25332	634.14066	1130.43948	-52.45041	690.42332	1128.01761	-15.04753	731.00937	1040.99311	-18.01705	729.18294	893.35539	-16.39644	715.44441	899.66508	20.50414	775.76667	1161.39811	-512.61395	749.07256	945.71740	-453.05015	774.78742	957.03923	-512.49081	849.63487	879.54797	-514.78794	906.71049	766.24816	-487.55897	877.22675	751.40077	-511.74181	676.50717	831.32838	-163.34352	717.05822	832.27157	-366.82118	692.11730	851.30839	-185.35957	723.55381	848.33812	-327.27094	
